<svg version="1.2" xmlns="http://www.w3.org/2000/svg" viewBox="0 0 32 32" width="32" height="32"><defs><clipPath clipPathUnits="userSpaceOnUse" id="cp1"><path d="m-254-4503h1366v4751h-1366z"/></clipPath></defs><style>.A{fill:#426982}</style><g clip-path="url(#cp1)"><path fill-rule="evenodd" class="A" d="m32 15.9c0 8.6-7.2 15.6-15.8 15.6c-2.6 0-5.2-0.7-7.4-1.9l-8.3 2.1l2.2-8c-1.4-2.4-2.1-5.1-2.1-7.8c0-8.6 7-15.7 15.6-15.7c4.2 0 8.1 1.7 11.1 4.6c2.9 3 4.7 6.9 4.7 11.1zm-2.6 0c0-3.5-1.5-6.8-4-9.2c-2.4-2.5-5.7-3.8-9.2-3.8c-7.1 0-12.9 5.8-12.9 13c0 2.4 0.6 4.8 1.9 6.9l0.3 0.5l-1.3 4.7l4.9-1.2l0.5 0.2c2 1.2 4.3 1.8 6.6 1.8c7.2 0 13.2-5.8 13.2-12.9zm-5.3 3.7c0.1 0.2 0.1 0.9-0.2 1.8c-0.4 1-1.9 1.8-2.7 1.9c-1.2 0.2-2.2 0.1-4.7-1c-3.9-1.7-6.4-5.6-6.6-5.9c-0.2-0.2-1.6-2.1-1.6-4c0-1.9 1-2.9 1.4-3.3c0.3-0.3 0.7-0.4 1-0.4q0.4 0 0.7 0c0.3 0 0.6-0.1 0.9 0.6c0.3 0.8 1.1 2.7 1.2 2.9c0.1 0.2 0.2 0.5 0.1 0.7c-0.8 1.5-1.6 1.5-1.2 2.2c1.5 2.5 3 3.4 5.3 4.6c0.4 0.2 0.6 0.2 0.9-0.1c0.2-0.3 0.9-1.1 1.2-1.5c0.3-0.4 0.5-0.4 0.9-0.2c0.3 0.1 2.3 1 2.6 1.2c0.4 0.2 0.7 0.3 0.8 0.5z"/></g></svg>