<svg version="1.2" xmlns="http://www.w3.org/2000/svg" viewBox="0 0 37 30" width="37" height="30"><defs><clipPath clipPathUnits="userSpaceOnUse" id="cp1"><path d="m-84-4504h1366v4751h-1366z"/></clipPath></defs><style>.A{fill:#426982}</style><g clip-path="url(#cp1)"><path class="A" d="m33.3 7.7q0 0.4 0 0.9c0 9.8-7.4 21-21 21c-4.2 0-8-1.2-11.3-3.3c0.6 0.1 1.1 0.1 1.8 0.1c3.4 0 6.6-1.2 9.1-3.2c-3.2 0-5.9-2.1-6.9-5.1q0.7 0.1 1.4 0.1q1 0 2-0.2c-3.4-0.7-6-3.7-6-7.2v-0.1c1 0.5 2.2 0.9 3.4 0.9c-2-1.3-3.3-3.6-3.3-6.1c0-1.4 0.4-2.7 1-3.8c3.6 4.5 9.1 7.4 15.2 7.7q-0.2-0.8-0.2-1.6c0-4.1 3.3-7.4 7.4-7.4c2.1 0 4 0.9 5.4 2.3c1.7-0.3 3.3-0.9 4.7-1.8c-0.6 1.7-1.7 3.2-3.3 4.1c1.5-0.2 3-0.6 4.3-1.1c-1 1.4-2.3 2.7-3.7 3.8z"/></g></svg>