<svg version="1.2" xmlns="http://www.w3.org/2000/svg" viewBox="0 0 36 36" width="36" height="36"><defs><clipPath clipPathUnits="userSpaceOnUse" id="cp1"><path d="m-192-4501h1366v4751h-1366z"/></clipPath></defs><style>.A{fill:#426982}</style><g clip-path="url(#cp1)"><path class="A" d="m35.5 18c0 9.6-7.8 17.4-17.4 17.4q-2.7 0-5.2-0.7c0.7-1.2 1.8-3.1 2.2-4.6c0.2-0.8 1.1-4.2 1.1-4.2c0.5 1.1 2.2 2 4 2c5.2 0 9-4.8 9-10.8c0-5.8-4.7-10.1-10.7-10.1c-7.6 0-11.6 5.1-11.6 10.6c0 2.5 1.4 5.7 3.6 6.7q0.5 0.3 0.6-0.2c0-0.2 0.3-1.4 0.4-2c0.1-0.1 0.1-0.3-0.1-0.5c-0.7-0.9-1.3-2.5-1.3-4c0-3.8 2.9-7.5 7.9-7.5c4.3 0 7.3 2.9 7.3 7.1c0 4.7-2.4 8-5.5 8c-1.7 0-3-1.4-2.6-3.2c0.5-2.1 1.5-4.3 1.5-5.8c0-1.3-0.7-2.4-2.2-2.4c-1.8 0-3.2 1.8-3.2 4.2c0 1.5 0.5 2.6 0.5 2.6c0 0-1.7 7.3-2 8.6c-0.4 1.5-0.2 3.7-0.1 5c-6.5-2.5-11.1-8.8-11.1-16.2c0-9.6 7.8-17.4 17.5-17.4c9.6 0 17.4 7.8 17.4 17.4z"/></g></svg>