<svg version="1.2" xmlns="http://www.w3.org/2000/svg" viewBox="0 0 246 191" width="246" height="191"><defs><clipPath clipPathUnits="userSpaceOnUse" id="cp1"><path d="m-549-1228h1366v4751h-1366z"/></clipPath></defs><style>.A{fill:#3b0a36}.B{fill:#fff}.C{fill:#d8d8d8}.D{fill:#edf8fb}.E{fill:#39d671}.F{fill:#0a8f4a}.G{fill:#fff;stroke:#3b0a36;stroke-width:2.8}.H{fill:#d9f1f6;stroke:#3b0a36;stroke-width:2.8}.I{fill:#8ec8d7;stroke:#3b0a36;stroke-width:2.8}.J{fill:#d9f1f6}.K{fill:#abc8ce}</style><g clip-path="url(#cp1)"><path fill-rule="evenodd" class="A" d="m245.5 86.8v31c0 3.7-3 6.8-6.8 6.8h-4.3v59.4c0 3.8-3 6.8-6.7 6.8h-130.5c-3.8 0-6.8-3-6.8-6.8v-59.4h-4.3c-3.7 0-6.8-3.1-6.8-6.8v-31c0-3.7 3.1-6.8 6.8-6.8h41.4v-11.9c0-5.5 4.5-9.9 9.9-9.9h50c5.4 0 9.9 4.4 9.9 9.9v11.9h41.4c3.8 0 6.8 3.1 6.8 6.8zm-107.4-18.1v11.3h48.7v-11.3z"/><path class="B" d="m91.3 185c-3.1 0-5.6-2.5-5.6-5.6v-63h141.7v63c0 3.1-2.5 5.6-5.6 5.6z"/><path fill-rule="evenodd" class="A" d="m228.6 179.4c0 3.7-3.1 6.7-6.8 6.7h-130.5c-3.7 0-6.7-3-6.7-6.7v-64.2h144zm-141.7-61.8v61.8c0 2.5 2 4.5 4.4 4.5h130.5c2.5 0 4.4-2 4.4-4.5v-61.8z"/><path class="C" d="m226.2 117.6v61.8c0 2.4-1.9 4.4-4.4 4.4h-130.5c-2.4 0-4.4-2-4.4-4.4v-14.6c0.6 1.3 1.4 2.6 2.6 3.7c2.3 2.3 5.8 3.3 8.9 3.9c4.5 0.9 9.2 1 13.8 1.3c9.9 0.6 19.9 0.5 29.9 0.5c10 0 20.1 0.2 30.1-0.2c8.8-0.4 17.5-1.5 26-3.6c5.7-1.3 11.5-3.4 15.1-8.3c4-5.3 2.8-13.5 3.1-19.8c0.1-4.3 0.6-10.4-2.6-14c-1.3-1.5-3.1-2.4-5.1-2.6c-4.9-0.5-10-0.3-15-0.1c-1.8 0-4.4-0.2-5.3 1.7c-0.4 0.8-0.4 1.7-0.8 2.5c-0.8 1.8-3.3 2.3-5.1 2.4c-3.6 0.2-8.6-1.9-10.9 2c-1.4 2.5-0.8 6.1-0.7 8.8c0.1 3.2-0.9 5.8-4.5 5.9c-1.9 0.1-3.7 0-5.6 0.1c-3.7 0.1-7.5 0.4-11.2-0.4c-4.8-1-6.5-4.1-6.7-8.6c-0.2-1.9-0.1-4.3-1.3-5.9c-1.6-1.9-4.4-2-6.7-2c-3.7 0-6.6 0.4-8.7-3.3c-1.5-2.7-2.4-4.6-5.6-5.4c-2.9-0.8-6.3-0.1-9.3-0.1h-24.4v-5.7z"/><path class="B" d="m182.1 78.8v-15.4c0-0.3-0.3-0.5-0.6-0.5h-49.9c-0.3 0-0.5 0.2-0.5 0.5v15.4h-8.2v-15.4c0-4.8 3.9-8.7 8.7-8.7h49.9c4.9 0 8.8 3.9 8.8 8.7v15.4z"/><path fill-rule="evenodd" class="A" d="m191.4 63.4v16.6h-10.5v-15.9h-48.7v15.9h-10.5v-16.6c0-5.4 4.4-9.9 9.9-9.9h49.9c5.5 0 9.9 4.5 9.9 9.9zm-59.8-7.5c-4.2 0-7.6 3.4-7.6 7.5v14.3h5.9v-14.3c0-0.9 0.8-1.7 1.7-1.7h49.9c1 0 1.7 0.8 1.7 1.7v14.3h5.9v-14.3c0-4.1-3.4-7.5-7.6-7.5z"/><rect class="B" x="74.7" y="76.5" width="163.8" height="42.2" rx="7.7"></rect><path fill-rule="evenodd" class="A" d="m239.7 82.1v31c0 3.8-3.1 6.8-6.8 6.8h-152.6c-3.8 0-6.8-3-6.8-6.8v-31c0-3.7 3-6.8 6.8-6.8h152.6c3.7 0 6.8 3.1 6.8 6.8zm-159.4-4.4c-2.5 0-4.5 2-4.5 4.4v31c0 2.5 2 4.5 4.5 4.5h152.6c2.4 0 4.4-2 4.4-4.5v-31c0-2.4-2-4.4-4.4-4.4z"/><path class="D" d="m79.3 99.5v-13.7c0-2.5 2-4.5 4.5-4.5h34.7q-5 0.6-9.9 1.5c-8.3 1.5-17.6 4-24.2 9.5c-2.3 2-3.9 4.5-5.1 7.2z"/><path class="C" d="m237.3 82.1v31c0 2.5-2 4.5-4.4 4.5h-152.6c-2.5 0-4.5-2-4.5-4.5v-3.9c0.7 1 1.5 1.9 2.8 2.7c3.1 2 6.9 1.7 10.5 1.2c4.8-0.6 9.4-0.7 14.2-0.4c4.4 0.2 8.9 0.4 13.4 0.1c3.3-0.2 6.9-0.7 9.2-3.3c0.7-0.8 0.9-2 1.2-2.9c0.5-1.9 2.9-2.3 4.5-2.5c2.4-0.1 4.8 0.5 7.2 0.1c5.5-0.8 5.1-6.5 5.7-10.8c0.6-3.8 3.3-4.4 6.8-4.5c3.3 0 6.6-0.4 9.9-0.1c1.8 0.2 3.6 0.6 5.1 1.6c2.5 1.5 2.5 4.7 2.7 7.3c0.1 2.2 0.4 4.4 2.5 5.6c2.4 1.3 6 1.1 8.7 1.1c2.7 0.1 4.9 0.7 5.6 3.5c0.3 1.2 0.7 2.5 1.5 3.4c3.1 3.8 9.4 3 13.7 2.7c5.5-0.4 11.1-0.1 16.4-2.3c5.4-2.1 7.5-6.6 8.1-12.1c0.5-4.3-0.1-8.8-0.1-13.1c0.1-3 0.2-6-0.4-8.8h7.9c2.4 0 4.4 2 4.4 4.4z"/><path class="B" d="m151 144.1c-1.9 0-3.4-1.5-3.4-3.4v-14.1h-14.2c-1.8 0-3.4-1.6-3.4-3.4v-11.2c0-1.9 1.6-3.4 3.4-3.4h14.2v-14.2c0-1.8 1.5-3.4 3.4-3.4h11.2c1.8 0 3.4 1.6 3.4 3.4v14.2h14.1c1.9 0 3.4 1.5 3.4 3.4v11.2c0 1.8-1.5 3.4-3.4 3.4h-14.1v14.1c0 1.9-1.6 3.4-3.4 3.4z"/><path fill-rule="evenodd" class="A" d="m166.7 94.4v13h13c2.5 0 4.6 2.1 4.6 4.6v11.2c0 2.5-2.1 4.5-4.6 4.5h-13v13c0 2.5-2 4.6-4.5 4.6h-11.2c-2.5 0-4.6-2.1-4.6-4.6v-13h-13c-2.5 0-4.5-2-4.5-4.5v-11.2c0-2.5 2-4.6 4.5-4.6h13v-13c0-2.5 2.1-4.5 4.6-4.5h11.2c2.5 0 4.5 2 4.5 4.5zm-15.7-2.2c-1.2 0-2.2 1-2.2 2.2v15.3h-15.4c-1.2 0-2.2 1-2.2 2.3v11.2c0 1.2 1 2.2 2.2 2.2h15.4v15.3c0 1.2 1 2.2 2.2 2.2h11.2c1.2 0 2.2-1 2.2-2.2v-15.3h15.3c1.2 0 2.2-1 2.2-2.2v-11.2c0-1.3-1-2.3-2.2-2.3h-15.3v-15.3c0-1.2-1-2.2-2.2-2.2z"/><path class="B" d="m132.3 112.3c0.3-1 1.1-1.7 2.2-1.7h15.3v-15.3c0-1.2 1-2.2 2.2-2.2h2.8c-1.4 0.8-2.2 2.2-2.6 3.8c-0.8 2.9-0.5 6-0.4 8.9c0 1.7 0.7 4.6-1 5.8c-1 0.8-2.7 0.6-3.9 0.6c-1.5-0.1-3.1-0.3-4.7-0.4c-1.4-0.1-2.8-0.1-4.3-0.2c-1.2-0.1-2.4-0.2-3.6-0.1c-0.9 0.1-1.5 0.4-2 0.8z"/><path class="C" d="m181.9 112v11.2c0 1.2-1 2.2-2.2 2.2h-15.3v15.3c0 1.2-1 2.2-2.2 2.2h-11.2c-1.2 0-2.2-1-2.2-2.2v-0.3c2.5 1.4 6.5 0.5 8.3-1.7c1.6-1.9 1.8-4.9 1.9-7.2c0.2-2.2-0.5-5.8 1.7-7.1c0.8-0.6 1.9-0.6 2.9-0.7c1.3 0 2.7 0 4.1 0.1c2.9 0.2 5.9 0.6 8.8 0c2.1-0.5 2.9-2.2 3.1-4.2c0.1-1.1 0-2.2 0-3.3c0-1.2-0.1-2.3-0.4-3.5c-0.3-1.3-1.2-2.3-2.2-3.1h2.7c1.2 0 2.2 1 2.2 2.3z"/><path class="E" d="m165.6 116.4c0 1-0.1 2.1-0.4 3.1c-0.7 2.1-2.3 3.7-4 5c-1.5 1.1-3.2 1.9-4.6 3.1c-1.4-1.2-3.1-2-4.6-3.1c-1.8-1.3-3.4-2.9-4-5c-0.3-1-0.5-2.1-0.4-3.1c0-2.7 2.2-5.4 5.1-5c0.9 0.2 1.9 0.5 2.6 1.1c0.6 0.6 1.3 1.5 1.3 2.4q0.3-1.4 1.3-2.4c0.7-0.6 1.6-0.9 2.5-1.1c2.9-0.4 5.1 2.3 5.2 5z"/><path class="A" d="m85.2 8.4v25.2l21.5-13.1c0.6-0.4 1.4-0.6 2.1-0.6c1.4 0 2.7 0.7 3.4 2l15.2 24.9c1.2 1.9 0.6 4.4-1.3 5.6l-23.7 14.4l23.7 14.4c1.9 1.1 2.5 3.6 1.3 5.5l-15.2 25c-0.7 1.2-2 1.9-3.4 1.9c-0.7 0-1.5-0.2-2.1-0.6l-21.5-13.1v25.2c0 2.2-1.8 4-4 4h-29.3c-2.2 0-4-1.8-4-4v-25.2l-21.5 13.1c-0.6 0.4-1.3 0.6-2.1 0.6c-1.4 0-2.6-0.7-3.4-1.9l-15.2-25c-1.1-1.9-0.5-4.4 1.3-5.5l23.7-14.4l-23.7-14.4c-1.8-1.2-2.4-3.7-1.3-5.6l15.2-24.9c0.8-1.3 2-2 3.4-2c0.8 0 1.5 0.2 2.1 0.6l21.5 13.1v-25.2c0-2.2 1.8-4 4-4h29.3c2.2 0 4 1.8 4 4z"/><path class="E" d="m46.8 124c-1.6 0-3-1.3-3-3v-27l-23 14q-0.7 0.5-1.6 0.5c-1 0-2-0.6-2.5-1.4l-15.2-25c-0.9-1.4-0.4-3.3 1-4.1l25.1-15.3l-25.1-15.3c-1.4-0.9-1.9-2.7-1-4.1l15.2-25c0.5-0.9 1.5-1.4 2.5-1.4q0.9 0 1.6 0.4l23 14v-27c0-1.6 1.4-3 3-3h29.3c1.6 0 3 1.4 3 3v27l23-14q0.7-0.4 1.6-0.4c1 0 2 0.5 2.5 1.4l15.2 25c0.4 0.7 0.6 1.5 0.4 2.2c-0.2 0.8-0.7 1.5-1.4 1.9l-25.1 15.3l25.1 15.3c1.4 0.8 1.9 2.7 1 4.1l-15.2 25c-0.5 0.8-1.5 1.4-2.5 1.4q-0.9 0-1.6-0.5l-23-14v27c0 1.7-1.4 3-3 3z"/><path fill-rule="evenodd" class="A" d="m80.1 4.3v25.2l21.5-13.1c0.6-0.4 1.3-0.6 2.1-0.6c1.4 0 2.7 0.7 3.4 2l15.2 24.9c0.6 1 0.7 2 0.5 3.1c-0.3 1-0.9 1.9-1.8 2.5l-23.7 14.4l23.7 14.4c1.9 1.1 2.5 3.6 1.3 5.5l-15.2 25c-0.7 1.2-2 1.9-3.4 1.9c-0.8 0-1.5-0.2-2.1-0.6l-21.5-13.1v25.2c0 2.2-1.8 4-4 4h-29.3c-2.2 0-4-1.8-4-4v-25.2l-21.5 13.1c-0.6 0.4-1.3 0.6-2.1 0.6c-1.4 0-2.7-0.7-3.4-1.9l-15.2-25c-1.2-1.9-0.6-4.4 1.3-5.5l23.7-14.4l-23.7-14.4c-1.9-1.2-2.5-3.7-1.3-5.6l15.2-24.9c0.7-1.3 2-2 3.4-2c0.8 0 1.5 0.2 2.1 0.6l21.5 13.1v-25.2c0-2.2 1.8-4 4-4h29.3c2.2 0 4 1.8 4 4zm-33.3-1.9c-1.1 0-1.9 0.8-1.9 1.9v28.9l-24.7-15q-0.4-0.3-1-0.3c-0.6 0-1.3 0.3-1.7 0.9l-15.2 25c-0.5 0.9-0.2 2.1 0.7 2.7l26.5 16.2l-26.5 16.1c-0.9 0.6-1.2 1.8-0.7 2.7l15.2 25c0.4 0.6 1.1 1 1.7 1q0.6 0 1-0.3l24.7-15v28.8c0 1.1 0.8 2 1.9 2h29.3c1.1 0 1.9-0.9 1.9-2v-28.8l24.7 15q0.4 0.3 1 0.3c0.6 0 1.3-0.4 1.6-1l15.3-25c0.5-0.9 0.2-2.1-0.7-2.7l-26.6-16.1l26.6-16.2c0.9-0.6 1.2-1.8 0.7-2.7l-15.3-25c-0.3-0.6-1-0.9-1.6-0.9q-0.6 0-1 0.3l-24.7 15v-28.9c0-1.1-0.8-1.9-1.9-1.9z"/><path class="F" d="m120.6 81.5l-15.3 25c-0.5 0.9-1.7 1.2-2.6 0.7l-24.7-15v28.8c0 1.1-0.8 2-1.9 2h-29.3c-1.1 0-1.9-0.9-1.9-2v-11.5c0.4 1.5 1 2.9 2 4.1c2.9 3.3 9.1 2.5 12.8 2.1c3.7-0.3 7.1-1.5 9.3-4.6c2.7-3.7 2.8-8.9 2.9-13.2c0.1-2.7 0.2-5.5 1.4-7.9c1.9-4.1 6.8-2.6 10-1.1c5 2.4 9.3 6.3 14.5 8.4c4.8 1.9 7.9-0.8 10.2-4.8c1.8-3.4 3.6-8 2.3-11.8c-1.1-3.2-4.5-5-7.4-6.3c-3.9-1.7-8.1-3-11.7-5.2c-3.6-2.1-6.9-6.5-4.3-10.5c2.3-3.7 7.8-5.4 11.6-6.8c3.3-1.3 7-2.4 9.8-4.7c3.6-3 3.8-8.3 0.7-11.8c-8.2-9.1-20.1 5-29 5.3c-6 0.3-6.8-8.1-7.3-12.4c-0.7-5.5-1.2-11-3.8-16c-2.2-4.4-6.2-7.5-10.9-8.8c-3-0.8-6.1-1-9.2-1.1h27.3c1.1 0 1.9 0.8 1.9 1.9v28.9l24.7-15c0.9-0.6 2.1-0.3 2.6 0.6l15.3 25c0.5 0.9 0.2 2.1-0.7 2.7l-26.6 16.2l26.6 16.1c0.9 0.6 1.2 1.8 0.7 2.7z"/><path class="G" d="m54 55.6c-0.2 1.5 0 3.1 0.5 4.5q0.4 1.1 1.1 2.1q0.7 1 1.5 2q0.9 1 1.9 1.9c0.6 0.5 1.3 1.1 2 1.6c1.4 1 3.2 1.8 5 3.2c0.8 0.7 1.6 1.5 2.2 2.5c0.6 0.9 1 1.9 1.2 3c0.4 2.1 0.2 4.2-0.6 6.1c-0.4 1-1 1.9-1.6 2.8c-0.8 0.9-1.6 1.6-2.5 2.1c-1.8 1.2-3.6 2-4.9 3c-0.7 0.5-1.3 1-1.7 1.6c-0.4 0.6-0.7 1.3-0.9 2c-0.4 1.5-0.1 3.1 0.7 4.3c0.8 1.3 2.2 2.3 3.9 2.9c1.6 0.7 3.4 1.1 5.3 1.3c0.7 0 1.2 0.6 1.1 1.2c-0.1 0.6-0.7 1-1.3 1c-2.1-0.2-4.2-0.5-6.2-1.3c-1-0.4-1.9-0.9-2.8-1.5c-0.9-0.6-1.7-1.4-2.3-2.3c-1.3-1.8-1.7-4-1.3-6.1q0.4-1.6 1.3-2.9c0.6-1 1.4-1.8 2.3-2.4c1.7-1.3 3.5-2.1 4.9-3.1c0.7-0.5 1.3-1 1.7-1.6q0.7-0.9 1.1-2c0.6-1.4 0.7-3 0.4-4.5q-0.3-1.1-0.9-2q-0.6-0.9-1.5-1.6c-1.3-1-3-1.8-4.8-2.9c-1-0.6-1.7-1.2-2.5-1.9q-1.2-1-2.2-2.1q-1-1.1-1.9-2.4q-0.9-1.3-1.5-2.7c-0.8-2-1.1-4.1-0.9-6.2c0.2-2.1 1-4.1 2.3-5.9q0.2-0.4 0.5-0.7l0.3-0.3l0.1-0.2l0.1-0.1l0.3-0.3l0.3-0.3q0.3-0.3 0.6-0.5q1.3-1.1 2.8-1.9c2-1 4.2-1.7 6.3-2q1.6-0.3 3.1-0.3q0.1 0.1 0.2 0.1c0.4 0.4 1 0.4 1.5 0.4q0.1 0 0.2 0.1c0.9 0.2 1.8 0.3 2.6 0.9c0.2 0.3 0.4 0.7 0.4 1.2c0 0.2 0.1 0.3 0.3 0.4q0 0.1 0 0.1q0 0.1 0 0.2c-0.5 0.6-1.2 1-2.1 0.9q0 0 0 0q-2.8-0.2-5.4 0.2c-1.7 0.2-3.4 0.7-4.9 1.4c-2.9 1.4-4.9 4-5.3 7z"/><path class="H" d="m64.9 38.9c0 2.5-1.4 68.8-3.2 68.8c-1.7 0-3.2-66.3-3.2-68.8c0-2.5 1.5-4.5 3.2-4.5c1.8 0 3.2 2 3.2 4.5z"/><path class="I" d="m68.2 103.7c-0.1 0.6-0.7 1-1.3 1q-2.3-0.2-4.4-0.8l0.2-2.4c1.4 0.5 2.9 0.8 4.4 1c0.7 0 1.2 0.6 1.1 1.2z"/><path class="I" d="m68.8 82.5c-0.4 1-1 1.9-1.6 2.8c-0.8 0.9-1.6 1.6-2.5 2.1c-1.8 1.2-3.6 2-4.9 3c-0.7 0.5-1.3 1-1.7 1.6c-0.4 0.6-0.7 1.3-0.9 2c-0.4 1.5-0.1 3.1 0.7 4.3c0.6 1 1.6 1.8 2.8 2.4l0.2 2.8q-0.1-0.1-0.2-0.1c-1-0.4-1.9-0.9-2.8-1.5c-0.9-0.6-1.7-1.4-2.3-2.3c-1.3-1.8-1.7-4-1.3-6.1q0.4-1.6 1.3-2.9c0.6-1 1.4-1.8 2.3-2.4c1.7-1.3 3.5-2.1 4.9-3.1c0.7-0.5 1.3-1 1.7-1.6q0.7-0.9 1.1-2c0.6-1.4 0.7-3 0.4-4.5q-0.3-1.1-0.9-2q-0.4-0.6-0.9-1.1c0-1.4 0.1-2.8 0.1-4.2q0.8 0.5 1.7 1.2c0.8 0.7 1.6 1.5 2.2 2.5c0.6 0.9 1 1.9 1.2 3c0.4 2.1 0.2 4.2-0.6 6.1z"/><path class="I" d="m71.3 43.4c0.5 0.3 1.4 0.8 1.6 1.4c1.1 2.5-1.9 2.3-3.3 2.2q0 0 0 0q-2.8-0.2-5.4 0.2c-1.7 0.2-3.4 0.7-4.9 1.4c-2.9 1.4-4.9 4-5.3 7c-0.2 1.5 0 3.1 0.5 4.5q0.4 1.1 1.1 2.1q0.7 1 1.5 2q0.8 0.9 1.7 1.7q0.1 0.1 0.1 0.3c0 0.4 0 0.9 0.1 1.3q0 0.1 0 0.1q0.1 1.5 0.1 3.1q-0.1-0.1-0.3-0.2c-1-0.6-1.7-1.2-2.5-1.9q-1.2-1-2.2-2.1q-1-1.1-1.9-2.4q-0.9-1.3-1.5-2.7c-0.8-2-1.1-4.1-0.9-6.2c0.2-2.1 1-4.1 2.3-5.9q0.2-0.4 0.5-0.7l0.3-0.3l0.1-0.2l0.1-0.1l0.3-0.3l0.3-0.3q0.3-0.3 0.6-0.5q1.3-1.1 2.8-1.9c2-1 4.2-1.7 6.3-2q1-0.2 2-0.3c1.2-0.1 2.4-0.1 3.6-0.1q0.5 0 0.9 0.1q0.7 0.2 1.4 0.7z"/><circle class="J" cx="61.6" cy="31.9" r="7.2"/><path fill-rule="evenodd" class="A" d="m69.9 31.9c0 4.5-3.7 8.2-8.3 8.2c-4.5 0-8.2-3.7-8.2-8.2c0-4.6 3.7-8.2 8.2-8.2c4.6 0 8.3 3.6 8.3 8.2zm-14.4 0c0 3.4 2.7 6.1 6.1 6.1c3.5 0 6.2-2.7 6.2-6.1c0-3.4-2.7-6.2-6.2-6.2c-3.4 0-6.1 2.8-6.1 6.2z"/><path class="K" d="m67.8 31.9c0 3.4-2.8 6.1-6.2 6.1c-2.1 0-4-1.1-5.1-2.8c0.9 0.6 2.1 1 3.3 1c3.4 0 6.2-2.7 6.2-6.2c0-1.2-0.4-2.3-1-3.3c1.7 1.1 2.8 3 2.8 5.2z"/><path class="A" d="m69 43.9c0.2 0 0.3 0.2 0.3 0.5c0 0.3-0.1 0.5-0.3 0.5c-0.2 0-0.4-0.2-0.4-0.5c0-0.3 0.2-0.5 0.4-0.5z"/></g></svg>