<svg version="1.2" xmlns="http://www.w3.org/2000/svg" viewBox="0 0 33 32" width="33" height="32"><defs><clipPath clipPathUnits="userSpaceOnUse" id="cp1"><path d="m-418-3682h1366v4480h-1366z"/></clipPath></defs><style>.A{fill:#878787}</style><g clip-path="url(#cp1)"><path fill-rule="evenodd" class="A" d="m32.3 15.9c0 8.7-7.2 15.9-15.9 15.9c-3.2 0-6.2-1-8.7-2.7l-6.1 2l1.9-5.9c-1.9-2.6-3-5.8-3-9.3c0-8.8 7.1-15.9 15.9-15.9c8.7 0 15.9 7.1 15.9 15.9zm-6.4 4.3c-0.1-0.2-0.4-0.3-0.9-0.5c-0.5-0.3-2.7-1.4-3.2-1.5c-0.4-0.2-0.8-0.1-1.1 0.3c-0.4 0.6-0.9 1.3-1.2 1.7c-0.3 0.3-0.8 0.3-1.1 0.1c-0.6-0.2-2-0.7-3.8-2.3c-1.3-1.2-2.3-2.7-2.5-3.2c-0.3-0.4-0.1-0.7 0.1-0.9c0.3-0.3 0.5-0.5 0.7-0.8c0.3-0.3 0.4-0.4 0.5-0.7c0.2-0.3 0.1-0.7 0-0.9c-0.1-0.2-1.1-2.5-1.5-3.4c-0.3-0.8-0.5-0.8-1-0.8q-0.2 0-0.5 0c-0.6 0-1.2 0.1-1.6 0.5c-0.5 0.5-1.6 1.6-1.6 3.9c0 2.3 1.6 4.5 1.8 4.8c0.3 0.3 3.3 5 8 7c3.6 1.5 4.7 1.3 5.5 1.2c1.2-0.3 2.7-1.2 3.1-2.3c0.4-1.1 0.4-2 0.3-2.2z"/></g></svg>