<svg version="1.2" xmlns="http://www.w3.org/2000/svg" viewBox="0 0 33 32" width="33" height="32"><defs><clipPath clipPathUnits="userSpaceOnUse" id="cp1"><path d="m-346-3682h1366v4480h-1366z"/></clipPath></defs><style>.A{fill:#878787}</style><g clip-path="url(#cp1)"><path fill-rule="evenodd" class="A" d="m0.8 15.9c0-8.8 7.1-15.9 15.8-15.9c8.8 0 15.9 7.1 15.9 15.9c0 8.7-7.1 15.9-15.9 15.9c-8.7 0-15.8-7.2-15.8-15.9zm7 0.9l4 1.2l9.1-5.7c0.4-0.3 0.8-0.1 0.4 0.2l-7.3 6.6l-0.3 4c0.4 0 0.6-0.1 0.8-0.4l1.9-1.8l4 2.9c0.7 0.4 1.2 0.2 1.4-0.6l2.6-12.3c0.3-1.1-0.4-1.5-1.1-1.3l-15.3 5.9c-1 0.4-1 1-0.2 1.3z"/></g></svg>