<svg version="1.2" xmlns="http://www.w3.org/2000/svg" viewBox="0 0 32 32" width="32" height="32"><defs><clipPath clipPathUnits="userSpaceOnUse" id="cp1"><path d="m-275-3682h1366v4480h-1366z"/></clipPath></defs><style>.A{fill:#878787}</style><g clip-path="url(#cp1)"><path fill-rule="evenodd" class="A" d="m31.8 9.9v11.9c0 5.5-4.5 10-10 10h-11.9c-5.5 0-9.9-4.5-9.9-10v-11.9c0-5.5 4.4-9.9 9.9-9.9h11.9c5.5 0 10 4.4 10 9.9zm-3 0c0-3.8-3.1-6.9-7-6.9h-11.9c-3.8 0-6.9 3.1-6.9 6.9v11.9c0 3.9 3.1 7 6.9 7h11.9c3.9 0 7-3.1 7-7z"/><path fill-rule="evenodd" class="A" d="m23.8 15.9c0 4.4-3.5 7.9-7.9 7.9c-4.4 0-8-3.5-8-7.9c0-4.4 3.6-8 8-8c4.4 0 7.9 3.6 7.9 8zm-3 0c0-2.8-2.2-5-4.9-5c-2.7 0-5 2.2-5 5c0 2.7 2.3 4.9 5 4.9c2.7 0 4.9-2.2 4.9-4.9z"/><circle class="A" cx="24.4" cy="7.3" r="1.1"/></g></svg>