<svg version="1.2" xmlns="http://www.w3.org/2000/svg" viewBox="0 0 30 26" width="30" height="26"><defs><clipPath clipPathUnits="userSpaceOnUse" id="cp1"><path d="m-136-3685h1366v4480h-1366z"/></clipPath></defs><style>.A{fill:#878787}</style><g clip-path="url(#cp1)"><path class="A" d="m29.8 3.6c0.2 0.1 0.2 0.4 0.1 0.6q-1.2 1.7-2.9 3q0 0.3 0 0.5c0 4.3-1.6 8.5-4.5 11.8c-2.3 2.5-6.4 5.6-12.9 5.6c-3.3 0-6.6-0.9-9.4-2.7c-0.2-0.1-0.2-0.4-0.2-0.6c0.1-0.2 0.3-0.3 0.5-0.3q0.7 0.1 1.4 0.1c2.2 0 4.3-0.6 6.1-1.8c-2.2-0.4-4-2.1-4.7-4.3c-0.1-0.1 0-0.3 0.1-0.4c0.1-0.2 0.3-0.2 0.4-0.2q0.3 0.1 0.5 0.1c-1.9-1.1-3.1-3.2-3.1-5.5q0-0.1 0-0.1c0-0.2 0.1-0.4 0.2-0.4c0.2-0.1 0.3-0.1 0.5 0q0.4 0.2 0.8 0.3c-0.9-1.1-1.5-2.6-1.5-4.1c0-1.2 0.3-2.3 0.9-3.3q0.1-0.2 0.4-0.2q0.2 0 0.4 0.2c2.8 3.4 6.9 5.6 11.3 6q-0.1-0.4-0.1-0.9c0-3.5 2.9-6.4 6.4-6.4c1.7 0 3.3 0.7 4.5 1.9q1.8-0.4 3.4-1.4c0.2-0.1 0.4-0.1 0.6 0.1c0.1 0.1 0.2 0.3 0.1 0.5q-0.4 1.3-1.3 2.3q0.8-0.2 1.5-0.6c0.2 0 0.4 0 0.5 0.2z"/></g></svg>