<svg version="1.2" xmlns="http://www.w3.org/2000/svg" viewBox="0 0 31 30" width="31" height="30"><defs><clipPath clipPathUnits="userSpaceOnUse" id="cp1"><path d="m-205-3683h1366v4480h-1366z"/></clipPath></defs><style>.A{fill:#878787}</style><g clip-path="url(#cp1)"><path fill-rule="evenodd" class="A" d="m30.3 3v23.8c0 1.3-1 2.4-2.3 2.4h-25.2c-1.3 0-2.4-1.1-2.4-2.4v-23.8c0-1.3 1.1-2.4 2.4-2.4h25.2c1.3 0 2.3 1.1 2.3 2.4zm-9 3.3c-1.2-0.3-2.1-0.7-3.3-0.7c-1.2 0-2.3 0.2-3 0.5c-0.8 0.4-1.3 1-1.6 1.6c-0.3 0.6-0.4 1.3-0.4 2.5v1.2h-1.9v2.9h1.9v9.9h4v-9.9h2.5l0.7-2.9h-3.2v-1.1q0-1.1 0.4-1.5c0.3-0.2 0.8-0.4 1.4-0.4c0.6 0 1.1 0.3 1.7 0.7z"/></g></svg>