<svg version="1.2" xmlns="http://www.w3.org/2000/svg" viewBox="0 0 605 421" width="605" height="421"><defs><clipPath clipPathUnits="userSpaceOnUse" id="cp1"><path d="m-656-1571h1366v4751h-1366z"/></clipPath><linearGradient id="P" gradientUnits="userSpaceOnUse"/><linearGradient id="g1" x1="-1610.8" y1="411.1" x2="-1641.2" y2="495.8" href="#P"><stop stop-color="#1daa55"/><stop offset="1" stop-color="#1c5d38"/></linearGradient><linearGradient id="g2" x1="-1438.8" y1="304.8" x2="-1410.2" y2="304.8" href="#P"><stop stop-color="#1daa55"/><stop offset="1" stop-color="#1c5d38"/></linearGradient><linearGradient id="g3" x1="-1439.4" y1="382.9" x2="-1392.2" y2="368.5" href="#P"><stop stop-color="#dadbdb"/><stop offset="1" stop-color="#fff"/></linearGradient><linearGradient id="g4" x1="-1459.1" y1="410.8" x2="-1362.9" y2="382.6" href="#P"><stop stop-color="#f5f7f7"/><stop offset="1" stop-color="#fff"/></linearGradient><linearGradient id="g5" x1="325.6" y1="141.6" x2="442" y2="141.6" href="#P"><stop stop-color="#f5f7f7"/><stop offset="1" stop-color="#fff"/></linearGradient><linearGradient id="g6" x1="-1385.9" y1="495.8" x2="-1333.1" y2="433.9" href="#P"><stop stop-color="#d7d8d8"/><stop offset="1" stop-color="#fef4da"/></linearGradient><linearGradient id="g7" x1="-1342.9" y1="471.7" x2="-1342.5" y2="542" href="#P"><stop stop-color="#1daa55"/><stop offset="1" stop-color="#1c5d38"/></linearGradient><linearGradient id="g8" x1="270" y1="228.7" x2="486.4" y2="228.7" href="#P"><stop stop-color="#dadbdb"/><stop offset="1" stop-color="#fff"/></linearGradient><linearGradient id="g9" x1="-1458.6" y1="456" x2="-1445.6" y2="566.6" href="#P"><stop stop-color="#1daa55"/><stop offset="1" stop-color="#1c5d38"/></linearGradient><linearGradient id="g10" x1="101.4" y1="304.4" x2="453.1" y2="333.9" href="#P"><stop stop-color="#1daa55"/><stop offset="1" stop-color="#1c5d38"/></linearGradient><linearGradient id="g11" x1="-1306.2" y1="478.8" x2="-1317.6" y2="392.8" href="#P"><stop stop-color="#14869c"/><stop offset="1" stop-color="#1e4971"/></linearGradient><linearGradient id="g12" x1="-1390.2" y1="497.1" x2="-1393.7" y2="404.3" href="#P"><stop stop-color="#14869c"/><stop offset="1" stop-color="#1e4971"/></linearGradient><linearGradient id="g13" x1="-1375.9" y1="553.3" x2="-1378.7" y2="478.5" href="#P"><stop stop-color="#14869c"/><stop offset="1" stop-color="#1e4971"/></linearGradient><linearGradient id="g14" x1="-1320.6" y1="580.5" x2="-1316.9" y2="512.9" href="#P"><stop stop-color="#26afc9"/><stop offset="1" stop-color="#1e4971"/></linearGradient><linearGradient id="g15" x1="-1234.4" y1="585.3" x2="-1230.7" y2="517.7" href="#P"><stop stop-color="#26afc9"/><stop offset="1" stop-color="#1e4971"/></linearGradient><linearGradient id="g16" x1="-1287.1" y1="366.3" x2="-1344.1" y2="468" href="#P"><stop stop-color="#a1c489"/><stop offset=".2" stop-color="#7c9769"/><stop offset=".5" stop-color="#47563c"/><stop offset=".7" stop-color="#20271b"/><stop offset=".9" stop-color="#080a07"/><stop offset="1"/></linearGradient><linearGradient id="g17" x1="-1368.2" y1="565.9" x2="-1388" y2="484.4" href="#P"><stop stop-color="#a1c489"/><stop offset=".2" stop-color="#7c9769"/><stop offset=".5" stop-color="#47563c"/><stop offset=".7" stop-color="#20271b"/><stop offset=".9" stop-color="#080a07"/><stop offset="1"/></linearGradient><linearGradient id="g18" x1="-1390.6" y1="398.7" x2="-1401.3" y2="451.5" href="#P"><stop stop-color="#a1c489"/><stop offset=".2" stop-color="#7c9769"/><stop offset=".5" stop-color="#47563c"/><stop offset=".7" stop-color="#20271b"/><stop offset=".9" stop-color="#080a07"/><stop offset="1"/></linearGradient><linearGradient id="g19" x1="-1445.2" y1="499.9" x2="-1448.4" y2="421.6" href="#P"><stop stop-color="#14869c"/><stop offset="1" stop-color="#1e4971"/></linearGradient><linearGradient id="g20" x1="-1509.1" y1="478.7" x2="-1510.4" y2="444.9" href="#P"><stop stop-color="#14869c"/><stop offset="1" stop-color="#1e4971"/></linearGradient><linearGradient id="g21" x1="-1454.1" y1="499.3" x2="-1451.1" y2="520.4" href="#P"><stop stop-color="#b0cde8"/><stop offset=".1" stop-color="#99c0dc"/><stop offset=".4" stop-color="#65a2c2"/><stop offset=".6" stop-color="#5197b8"/><stop offset=".7" stop-color="#5499ba"/><stop offset=".8" stop-color="#60a0c0"/><stop offset=".8" stop-color="#74abca"/><stop offset=".9" stop-color="#90bbd8"/><stop offset="1" stop-color="#b0cde8"/></linearGradient><linearGradient id="g22" x1="-1528.1" y1="499.7" x2="-1525.1" y2="520.9" href="#P"><stop stop-color="#b0cde8"/><stop offset=".1" stop-color="#99c0dc"/><stop offset=".4" stop-color="#65a2c2"/><stop offset=".6" stop-color="#5197b8"/><stop offset=".7" stop-color="#5499ba"/><stop offset=".8" stop-color="#60a0c0"/><stop offset=".8" stop-color="#74abca"/><stop offset=".9" stop-color="#90bbd8"/><stop offset="1" stop-color="#b0cde8"/></linearGradient><linearGradient id="g23" x1="-1346.5" y1="498.2" x2="-1175.1" y2="498.2" href="#P"><stop stop-color="#dadbdb"/><stop offset="1" stop-color="#fff"/></linearGradient><linearGradient id="g24" x1="-1218.9" y1="448.3" x2="-1256.1" y2="542.5" href="#P"><stop stop-color="#e3ac5f"/><stop offset=".3" stop-color="#98733f"/><stop offset=".5" stop-color="#574124"/><stop offset=".7" stop-color="#271e10"/><stop offset=".9" stop-color="#0a0804"/><stop offset="1"/></linearGradient><linearGradient id="g25" x1="-1165.1" y1="489.5" x2="-1224.4" y2="555.8" href="#P"><stop stop-color="#e3ac5f"/><stop offset=".3" stop-color="#98733f"/><stop offset=".5" stop-color="#574124"/><stop offset=".7" stop-color="#271e10"/><stop offset=".9" stop-color="#0a0804"/><stop offset="1"/></linearGradient><linearGradient id="g26" x1="327.2" y1="144.7" x2="439.1" y2="144.7" href="#P"><stop stop-color="#1daa55"/><stop offset="1" stop-color="#1c5d38"/></linearGradient><linearGradient id="g27" x1="-1324.7" y1="505.9" x2="-1325.8" y2="562.4" href="#P"><stop stop-color="#26afc9"/><stop offset="1" stop-color="#1e4971"/></linearGradient><linearGradient id="g28" x1="-1241.5" y1="507.6" x2="-1242.6" y2="564" href="#P"><stop stop-color="#26afc9"/><stop offset="1" stop-color="#1e4971"/></linearGradient></defs><style>.A{fill:#729bb5}.B{fill:url(#g1)}.C{fill:#fff3ee}.D{fill:url(#g2)}.E{fill:#426982}.F{fill:url(#g3)}.G{fill:url(#g4)}.H{fill:url(#g5)}.I{fill:url(#g6)}.J{fill:url(#g7)}.K{fill:url(#g8)}.L{fill:url(#g9)}.M{fill:#fceee8}.N{fill:url(#g10)}.O{fill:url(#g11)}.P{fill:url(#g12)}.Q{fill:url(#g13)}.R{fill:url(#g14)}.S{fill:url(#g15)}.T{fill:#14869c}.U{fill:url(#g16)}.V{fill:#1f3347}.W{fill:url(#g17)}.X{fill:url(#g18)}.Y{fill:url(#g19)}.Z{fill:url(#g20)}.a{fill:url(#g21)}.b{fill:url(#g22)}.c{fill:url(#g23)}.d{fill:url(#g24)}.e{fill:url(#g25)}.f{fill:url(#g26)}.g{fill:url(#g27)}.h{fill:url(#g28)}.i{fill:#b8e3e1}.j{fill:#2f84b5}</style><g clip-path="url(#cp1)"><path class="A" d="m199.8 408.8c-7-19-4.1-41.6 7.6-57.4c3.9 1.4 6.9 2.1 10.8 3.5c-12 14.7-17.8 34.8-13.7 54q-1.9-0.1-3.7-0.2c0.4-0.1-1.3 0.2-1 0.1z"/><path class="A" d="m270 391.5c-7.1-19-4.2-41.6 7.5-57.4c3.9 1.4 6.9 2.2 10.8 3.6c-12 14.6-17.7 34.7-13.7 53.9q-1.8-0.1-3.7-0.2c0.4-0.1-1.3 0.2-0.9 0.1z"/><path class="A" d="m324.7 380.1l-160.5 40.2c-8.9-1.3-16.5-3.4-21.6-7.2l3.9-8.6c5.3 5.6 11.5 9.5 18.9 11.3l158.4-39.7z"/><path class="B" d="m557 57.7l3.6 106.8l14.1 82.7l-7.1 1.6l-29.2-64.3l-57.3 14.5l-17.1-48.1l71.1-5.6l10.3-79.9z"/><path class="C" d="m481.3 184.1l68.5-13.2l-4.8 8.2l-63 17.6z"/><path class="D" d="m323.7 74.8c1 0.5 1.8 1.1 2.4 2c0.5 0.9 0.7 1.9 0.4 2.9c-0.2 0.7-0.7 1.2-1.2 1.7c-6.1 5.5-15.8 6.4-23.3 6.2c-0.8 0-1.6-0.1-2.2-0.6c-3.3-2.8 3.7-7.3 5.2-8.4c5-3.4 12.9-6.4 18.7-3.8z"/><path class="E" d="m313.1 82.3c71-1.5 145 0.8 220.3 8.7l-20 4.4l-201.3-11.1z"/><path class="E" d="m320 79.3c55-18.8 164.7-48 284.3-79.1l-13.2 16.7c-59.2 11.2-165.6 38.3-271.6 65.2z"/><path class="E" d="m305.2 85.2c-90.5-3.8-193.7-2.1-304.8 2.9l33.7-24.3c96.8 4.3 188.1 10.1 272.6 17.5z"/><path class="E" d="m305.2 85.2l-190.7 66l-43.3 4c81.2-26.4 159.4-50.7 231.4-70.6z"/><path class="E" d="m324 77.1c1 0.4 1.8 0.9 2.4 1.7c0.4 0.6 0.6 1.5 0.3 2.3c-0.2 0.6-0.7 1.1-1.2 1.5c-6.1 4.7-15.9 5.6-23.3 5.5c-0.8 0-1.6 0-2.2-0.4c-3.2-2.3 3.8-6.2 5.3-7.1c5-2.9 13-5.6 18.7-3.5z"/><path class="E" d="m314.6 80.4l5.8 40.3l-3.5 0.8l-5.1-40.5z"/><path class="E" d="m316.7 111.6c0.3-1.1 1-2 1.6-2.9c1.5-2.3 3-4.9 4.6-7.2c-2.2-3.4-4.9-6.6-7.8-9.3c0.1-0.9-0.3-1.9-0.2-2.8q5.6 5.5 10.5 11.7c-2.5 4.9-5 9.5-8.6 13.8c-0.5-1-0.4-2.3-0.1-3.3z"/><path class="E" d="m318.8 114.5c-4.5-3.1-8.1-7-11.7-11.1q3.1-7.2 7.2-14c0.3 0.9 0.2 1.9 0.5 2.8c-2.1 3.3-4 7.1-5.2 10.9c2.1 1.9 4.2 4 6.2 5.8c0.9 0.8 1.7 1.5 2.3 2.5c0.5 0.9 1 2.1 0.7 3.1z"/><path class="E" d="m324.2 118.2c-1.2-3.6-2.4-6.6-3.6-10.1c0.5-0.5 0-1.2 0.5-1.7q3.3 5.3 6 11c-1.3 0.2-1.6 0.5-2.9 0.8z"/><path class="E" d="m308.3 120.9q1.3-7 3.3-13.8c0.6 0.5 0.3 1.4 0.9 1.8c-0.4 4.2-0.8 7.9-1.1 12.1c-1.4 0-1.7-0.2-3.1-0.1z"/><path class="F" d="m298.4 129.9c0.8-3.2 1.7-6.2 2.9-9.3c9.4-2.1 18.7-3.4 28.3-3.6c1.5-0.1 3-0.1 4.4-0.1c3.8 3.2 6.9 7.1 9 11.5c-14.9 3.3-30.3 5.3-45.5 6.2q0.4-2.4 0.9-4.7z"/><path class="E" d="m298.4 129.9l29.3-6.3l1.9-6.6c1.5-0.1 3-0.1 4.4-0.1c3.8 3.2 6.9 7.1 9 11.5c-14.9 3.3-30.3 5.3-45.5 6.2q0.4-2.4 0.9-4.7z"/><path class="G" d="m262.9 138.5c21.2-5.7 46.6-10.4 72.1-13.4c25.8-3.1 51.7-4.4 73.2-3.4c14.8 2.9 25.1 13 33.8 25.4l-116.4 14.7l-92.5 11.7c4.1-13.2 14.4-25.1 29.8-35z"/><path class="H" d="m325.8 159.8c0.9-9.2 3-18.2 6.3-26.8c0.7-1.8 1.6-5.1 2.9-7.9c25.8-3.1 51.7-4.4 73.2-3.4c14.8 2.9 25.1 13 33.8 25.4l-116.4 14.7q0.1-1 0.2-2z"/><path class="I" d="m101.2 307.4c1.5-9.8 6.8-19.3 13.3-27.3q2.9-3.5 6-6.5c9-9.1 20-16.1 30.8-23c6.7-23.5 20.4-45.3 37-63.2c32.2-13.2 75.6-26.6 115.7-32.7q5.6-0.9 11.1-1.6c59.5-7.1 98.5-11.8 148.3-9.9q4.9 4.7 8.7 10.1c13 18.4 15.8 42.2 13.7 64.6c-2.4 25.5-8.4 57.5-25.5 77.4c-15.1 12-34.2 20-53.3 25.4c-46.2 12.9-93 23.9-140.3 32.2c-29.3 5.1-59.9 3.3-89.1-2.7c-4.5-1-9-2.1-13.5-3.4c-13.4-3.9-26.3-9.5-37.9-17c-9.4-6.1-17.9-13.4-25-22q0-0.2 0-0.4z"/><path class="J" d="m101.2 307.4c1.5-9.8 6.8-19.3 13.3-27.3c51.8-19.6 108.5-25.6 163.8-21.2q0.1 0 0.2 0c-2.6 7-5.5 13.2-8.5 18.2c9.3 13.8 23.8 23.8 39.5 29.6c16.9 6.2 35.2 7.9 53.3 7.9c31.7-0.2 63.4-5.7 93.3-16.2c-14.4 10.3-31.7 17.4-49.1 22.3c-46.2 12.9-93 23.9-140.3 32.2c-29.3 5.1-59.9 3.3-89.1-2.7c-4.5-1-9-2.1-13.5-3.4c-13.4-3.9-26.3-9.5-37.9-17c-9.4-6.1-17.9-13.4-25-22q0-0.2 0-0.4z"/><path class="K" d="m362.8 314.6c-18.1 0-36.4-1.7-53.3-7.9c-15.7-5.8-30.2-15.8-39.5-29.6c17.3-28.4 27.9-96 34-122.4q5.6-0.9 11.1-1.6c59.5-7.1 98.5-11.8 148.3-9.9c20.5 19.2 24.9 48 22.4 74.7c-2.4 25.5-8.4 57.5-25.5 77.4c-1.4 1.1-2.8 2.1-4.2 3.1c-29.9 10.5-61.6 16-93.3 16.2z"/><path class="L" d="m273 271.5q1-2 2-4.2q1.8-4 3.5-8.4c63.7 4.9 127.7-6.4 186.1-32.3c6.4-23.8 8.9-48.6 7.5-73.3c0.2 0.3 0.4 0.6 0.6 0.8c0.4 0.6 0.7 1.2 1.1 1.8q0.7 1.1 1.4 2.2q0.5 0.9 1 1.8c0.4 0.8 0.8 1.6 1.2 2.4q0.5 0.9 0.9 1.7q0.1 0.1 0.1 0.3c0.6 1.2 1.1 2.5 1.6 3.7c0.3 0.6 0.4 1.2 0.6 1.7q0.5 1.3 1 2.7q0.3 1 0.6 2q0.4 1.2 0.7 2.4q0.3 1 0.6 2.1q0.3 1.2 0.5 2.5l0.5 2c0.1 0.9 0.3 1.9 0.5 2.8c0 0.6 0.2 1.2 0.2 1.8q0.4 2.2 0.6 4.5q0.1 0.6 0.1 1.2q0.2 1.8 0.3 3.5q0 0.9 0.1 1.8q0 1.5 0.1 3q0 0.9 0 1.8c0 0.8 0 1.5 0 2.2c0 0.2 0 0.5 0 0.8v1.8q-0.1 1.6-0.2 3.2q0 0.7 0 1.5c-0.1 1.6-0.2 3.1-0.4 4.6c-2.4 25.5-8.4 57.5-25.5 77.4q-2.1 1.6-4.2 3.1c-29.9 10.5-61.6 16-93.3 16.2c-18.1 0-36.4-1.7-53.3-7.9c-15.7-5.8-30.2-15.8-39.5-29.6q1.5-2.6 3-5.6z"/><path class="M" d="m275 267.3q0.3 0.1 0.8 0.2c66.9 7.8 136.4-5.9 195.4-38.3c4.7-21.3 7.1-43.1 7.2-64.9c0.6 1.2 1.1 2.5 1.6 3.7c0.3 0.6 0.4 1.2 0.6 1.7q0.5 1.3 1 2.7q0.3 1 0.6 2q0.4 1.2 0.7 2.4q0.3 1 0.6 2.1q0.3 1.2 0.5 2.5l0.5 2c0.1 0.9 0.3 1.9 0.5 2.8c0 0.6 0.2 1.2 0.2 1.8q0.4 2.2 0.6 4.5q0.1 0.6 0.1 1.2q0.2 1.8 0.3 3.5q0 0.9 0.1 1.8q0 1.5 0.1 3q0 0.9 0 1.8c0 0.8 0 1.5 0 2.2c-3 10.2-6.8 22.3-10.3 30.1c-40 17.5-82.5 30.4-125.5 37.8c-25.8 4.5-53.2 6.9-77.6-2.4q1-2 2-4.2z"/><path class="N" d="m101.2 307.4c16 4.7 33.9 2.6 50.7 0.1c22.9-3.4 45.8-7.7 68.2-13.6c17.9-4.6 49.8-16.6 49.8-16.6q0-0.1 0.1-0.2c9.3 13.8 23.8 23.8 39.5 29.6c16.9 6.2 35.2 7.9 53.3 7.9c31.7-0.2 63.4-5.7 93.3-16.2c-14.4 10.3-31.7 17.4-49.1 22.3c-46.2 12.9-93 23.9-140.3 32.2c-19.7 3.4-40 3.7-60.1 1.7c-9.8-1-19.4-2.5-29-4.4c-4.5-1-9-2.1-13.5-3.4c-13.4-3.9-26.3-9.5-37.9-17c-8.5-5.5-16.3-12-23-19.6q-1-1.2-2-2.4q0-0.2 0-0.4z"/><path class="O" d="m161.9 224.5c5.5-10.7 12.6-21.4 21.7-31.8c14.4-5.6 30.7-11.1 48.7-16c1.8-0.5 3.6-1 5.4-1.4c19-5 39.7-9.2 61.9-12q0.9-0.2 1.9-0.3q-1.3 3.6-2.5 7.5q-0.6 1.9-1.1 3.7q-0.6 1.9-1.1 3.8q-0.5 1.9-1 3.8q-1 3.9-1.9 7.8q-0.4 1.8-0.8 3.5c-0.6 2.5-1.1 5.1-1.6 7.6c-1.2 6.3-2.2 12.6-3 18.9q0 0 0 0.1q-0.2 1.9-0.4 3.9c-20.9 0.6-44.8 3.7-67.3 8q-1.3 0.2-2.5 0.5c-27.3 5.3-52.4 12.3-67 18.5c2.6-8.7 6.1-17.4 10.6-26.1z"/><path class="P" d="m288.4 220.5c0.9-6.6 1.9-13.2 3.1-19.8q0.7-3.8 1.6-7.6q1.2-5.7 2.7-11.3c0.3-1.3 0.7-2.5 1-3.8q0.5-1.9 1.1-3.8q0.5-1.8 1.1-3.7q1.2-3.8 2.5-7.5q1.1 0 2.1 0.1c5.9 0.2 11.8 0.7 17.6 1.7c8.4 23.1 11.7 47.4 11.3 72.5c-12.9-6.9-26.3-11.3-40.2-13.2q-2-0.3-4-0.5h-0.2q0.1-1.5 0.3-3.1z"/><path class="Q" d="m301.3 238c9.8 2.5 19.9 5.8 28.9 10.6c0.7 17.9-4.2 36-13.9 51c-12-4-25.4-7.8-33.8-17.4c9.1-13.1 15.8-28.5 18.8-44.2z"/><path class="R" d="m276.5 290c3.9 3.7 8.2 6.8 12.8 9.4q3.2 1.9 6.7 3.5c4.8 2.2 9.9 3.9 15 5.3c-16.1 17.3-48.7 28.9-72.3 29q-0.2 0-0.3 0c-8.1 0-13.9-2.8-19.6-6.6c-5.1-3.4-10-7.5-16.5-11.1c25.8-6.6 51-16.5 74.2-29.5z"/><path class="S" d="m194.1 320.6c2.2 3.2 5 6 8.1 8.5q2.4 1.9 5.1 3.6c4 2.6 8.3 5 12.4 7.3c-17.1 4.1-37.8 8.1-55.6 6.8c-3.6-1.1-7.1-2.2-10.6-3.5q-2.1-0.8-4.2-1.6c-8.1-3.3-15.9-7.2-23.1-11.9c22-0.1 44.3-2.3 67.9-9.2z"/><path class="T" d="m306.2 174.8c2.1 3.7 3 8 2.9 12.3c-9.9 2.4-19.4 4.2-29.3 6.6c0.3 6.6 1.2 13.5 1.4 20c-3.1 0.5-6.3 0.2-9.5 0.7c-1.4-7.9-2.6-15.7-4-23.6c-12.8 1.7-25.1 4.7-37.2 9c-1.6 7.5-3.7 14.2-5.2 21.7c-20.4 4.2-40.7 8.3-60.8 13.7c3.8-12.1 9-24.2 16-34.7c40.5-12.6 83.6-20.9 125.7-25.7z"/><path class="U" d="m183.6 192.7c14.4-5.6 30.7-11.1 48.7-16c1.8-0.5 3.6-1 5.4-1.4c19-5 39.7-9.2 61.9-12q0.9-0.2 1.9-0.3q-1.3 3.6-2.5 7.5q-0.6 1.9-1.1 3.7q-0.6 1.9-1.1 3.8q-0.5 1.9-1 3.8q-1 3.9-1.9 7.8c-44.4 10.2-88.5 21.8-132 34.9c5.5-10.7 12.6-21.4 21.7-31.8z"/><path class="V" d="m232.3 176.7c1.8-0.5 3.6-1 5.4-1.4c-8.5 17.7-14.3 36.7-16.9 56.3q-1.3 0.2-2.5 0.5c0.9-19.2 5.8-38 14-55.4z"/><path class="W" d="m328.6 250.7q-1.9 12-5 23.7c-10.3 2-20.8 1.4-31.3 0.3c4.7-9.5 8.4-20.3 11-30.6c8.3 0.5 18 2.5 25.3 6.6z"/><path class="V" d="m288.4 220.5q0.1-0.4 0.1-0.8q0-0.1 0-0.1c1.1-19.1 4.7-38.3 11.1-56.3q0.9-0.2 1.9-0.3q1.1 0 2.1 0.1c-5.7 20.6-8.9 40.9-11.3 61q-2-0.3-4-0.5q0.1-1.5 0.1-3.1z"/><path class="X" d="m304.4 165.8c5.3 0.2 10.4 1.5 15.5 2.8c2.6 10.5 4.4 21.3 5.5 32.1c-9 1.7-17.7 1.2-26.9 0.8c1.9-11.6 4-24.1 5.9-35.7z"/><path fill-rule="evenodd" class="V" d="m393.3 286.6c5-44.3 1.6-85.7-10.6-126.6l-0.2-0.6l0.7-0.2c14.4-3 42-7.7 66.1-5.9l0.5 0.1l0.1 0.4c12.2 38 14.6 78.6 6.9 117.4l-0.2 0.4l-0.4 0.1c-15.5 4.7-30.5 9.2-45.8 12.6q-8.1 1.7-16.4 3l-0.8 0.1zm62.3-16c8.2-38.5 6-78.6-6.8-115.9c-23.4-1.7-50.2 2.8-64.6 5.7c10.9 40.3 14.3 81.3 10.5 125.5c20.8-3.2 40.3-9.1 60.9-15.3z"/><path fill-rule="evenodd" class="V" d="m343.7 298.3l-0.8 0.1v-0.8c4.3-46.1 1.3-90.5-9.7-131.9l-0.1-0.7l1-0.2c13.9-2.2 28.2-4.4 41.7-4.7h0.5l0.2 0.6c11.1 41.8 15 83.3 11.8 127v0.4l-0.4 0.2c-6.5 2.7-13.4 4.7-20.5 6.2c-7.9 1.7-15.9 2.9-23.7 3.8zm31.6-136.8c-13.2 0.3-27.1 2.4-40.6 4.6c10.1 40.9 13.1 84.9 9.6 130.8c14.4-1.8 29.4-4.2 42.7-9.7c3.8-43.1 0.3-84.1-11.7-125.7z"/><path class="Y" d="m352.6 234.3c-3.2-20.7-6.4-42.1-9.6-62.9c10.2-1.7 19.1-4.1 29.4-3.3c5.5 18.6 9.2 40.2 8.7 59.5c-7.9 4.3-19.5 6.1-28.5 6.7z"/><path fill-rule="evenodd" class="Z" d="m429.7 166.2c5.5-0.9 11-1.1 16.6-1.3c3.6 11.5 5.9 23.3 6.6 35.3c-5.5 1.6-11.7 3-17.4 3.9c-0.6-12.5-2-26-5.8-37.9zm-27.5 44.9c6.7-1 14-2.7 20.5-4.6c-0.7-13-3.1-25.9-7.2-38.3c-6.5 0.3-13 0.6-19.5 1.7c4.2 12.9 5.6 27.6 6.2 41.2z"/><path class="a" d="m376 259.2c-0.1-6.4-0.8-12.6-1.4-19.1c2.8-0.5 5.6-0.8 8.3-1.8c0.8 5.7 1.1 11.4 0.9 17.2c-2.6 1.4-5 2.7-7.8 3.7z"/><path class="E" d="m376.5 241h-0.1c1.8-0.3 3.6-0.5 5.4-0.2c0.4 4.4 0.4 8.8 0.1 13.2c-1.3 0.8-2.5 1.6-3.8 2.3c1-0.8 1.8-2 2.6-3.1c-0.3-3-0.6-6.3-0.8-9.3c-1-1.2-2.1-2.3-3.4-2.9z"/><path class="b" d="m448.5 243.9c-0.1-6.4-0.9-12.6-1.5-19c2.8-0.5 5.6-0.9 8.3-1.8c0.9 5.6 1.2 11.4 0.9 17.1c-2.6 1.4-4.9 2.8-7.7 3.7z"/><path class="E" d="m448.9 225.8l-0.1-0.1c1.8-0.3 3.6-0.5 5.5-0.2c0.4 4.4 0.4 8.9 0 13.3c-1.2 0.7-2.5 1.5-3.8 2.2c1-0.8 1.9-2 2.6-3.1c-0.2-3-0.5-6.3-0.8-9.3c-0.9-1.2-2-2.3-3.4-2.8z"/><path class="c" d="m273 271.5c-55.1-1.2-111 6.2-167.6 22.8l4.1-7.2c0 0 39.2-13.6 79.5-18.8c40.3-5.2 86-1 86-1z"/><path class="d" d="m103.8 305.5c10-20 25.2-42.1 45.5-51.7c20.9-9.9 44.1-15.6 67.2-16.7c-13.1 17.5-21.2 38.5-23.3 60.2c-28.9 5.7-60 10.6-89.4 8.2z"/><path class="e" d="m147.9 315.4c17.1 16.4 37 29.7 58.7 39.2c-9.8-1-19.4-2.5-29-4.4c-4.5-1-9-2.1-13.5-3.4c-13.4-3.9-26.3-9.5-37.9-17c-8.5-5.5-16.3-12-23-19.6c14.6 3.9 29.9 5.9 44.7 5.2z"/><path class="f" d="m439.1 142.8l-111.9 9.1c42.2-5.7 81.3-10.9 107.3-14.3z"/><path class="g" d="m278.6 312.4c4.6-1.9 9.4-3.7 13.8-6c1.4-0.7 2.4-1.3 3.2-2.5q0.3-0.4 0.4-1c4.8 2.2 9.9 3.9 15 5.3c-16.1 17.3-48.7 28.9-72.3 29q-0.2 0-0.3 0c-8.1 0-13.9-2.8-19.6-6.6q1.2-0.2 2.4-0.5c19.6-4.1 38.9-10 57.4-17.7z"/><path class="h" d="m162.2 337.3c8.5-0.6 17-1.1 25.5-2q9.8-1 19.6-2.6c4 2.6 8.3 5 12.4 7.3c-17.1 4.1-37.8 8.1-55.6 6.8c-3.6-1.1-7.1-2.2-10.6-3.5q-2.1-0.8-4.2-1.6c2.9-3.4 8.3-4.1 12.9-4.4z"/><path class="E" d="m396.3 127q8.4-0.4 16.7 0.1c0.7 0.5 1.1 1.1 1.3 1.9c-6.2 0.1-12 0.2-18.2 0.3c0.1-1 0.1-1.3 0.2-2.3z"/><path class="E" d="m397.7 130.6q8.3-0.4 16.7 0.2c0.7 0.4 1.1 1 1.3 1.8c-6.2 0.2-12 0.2-18.2 0.4c0.1-1.1 0.1-1.3 0.2-2.4z"/><path class="E" d="m399.1 134.2q8.3-0.4 16.7 0.2c0.6 0.4 1 1.1 1.3 1.9c-6.2 0.1-12 0.2-18.2 0.3c0.1-1.1 0.1-1.3 0.2-2.4z"/><path class="C" d="m547.4 64.8l-6.8 81.5l-5.5-1l10.3-79.9z"/><path class="C" d="m538.4 184.5l7.9 0.3l24.1 62l-2.8 2z"/><path class="E" d="m591.3 61.7l-8.8 47.6l20.6 32.8l-3.2 3.4l-18.6-33l-16.1 41.1l-5.7-4.4l19.2-37.1l6.3-54.4z"/><path class="E" d="m581.3 112.5l-27.6 5.8l-0.5-2.7l26.9-5.8z"/><path class="E" d="m479.7 345.1l-3.3 1.7c-4.3-19.2-17.9-35.1-34.8-43.5c3-2.8 5.4-4.8 8.3-7.7c17.2 9.6 29.2 28.9 30.7 49.2c0.3-0.1-1.3 0.4-0.9 0.3z"/><path class="E" d="m397.2 368.4q-1.6 0.8-3.2 1.7c-4.3-19.2-17.9-35.1-34.9-43.5c3-2.8 5.4-4.8 8.4-7.7c17.1 9.6 29.2 28.9 30.6 49.2c0.4-0.1-1.2 0.4-0.9 0.3z"/><path class="E" d="m519.3 334.7l-162.2 47.7c-8.9-1.2-16.5-3.3-21.7-7.1l3.9-8.6c5.4 5.6 11.6 9.4 19 11.3l160.1-47.3z"/><path class="i" d="m440.6 240c0.6 15.5-6.8 29.6-16.7 31.5c-9.8 1.9-18.3-9.1-18.9-24.6c-0.6-15.5 6.8-29.6 16.7-31.5c9.8-2 18.3 9.1 18.9 24.6z"/><path class="j" d="m439.2 240.2c0.5 14.1-6.3 26.9-15.4 28.7c-9 1.7-16.8-8.2-17.4-22.3c-0.5-14 6.3-26.9 15.4-28.6c9-1.8 16.8 8.2 17.4 22.2z"/><path class="i" d="m433.9 245.8l-7.2 1.5v11.2l-5.1 1l-1.3-11l-6.9 1.4l-1.4-7.4l7.6-1.5l-1.2-12.5l8.1-1.6l0.1 12.8l7.7-1.5z"/></g></svg>